<svg xmlns="http://www.w3.org/2000/svg" xmlns:xlink="http://www.w3.org/1999/xlink" width="600" zoomAndPan="magnify" viewBox="0 0 450 449.999984" height="600" preserveAspectRatio="xMidYMid meet" version="1.0"><defs><clipPath id="d224d44101"><path d="M 49.738281 94 L 306 94 L 306 437.914062 L 49.738281 437.914062 Z M 49.738281 94 " clip-rule="nonzero"/></clipPath><clipPath id="0ae05f9459"><path d="M 76 11.914062 L 163 11.914062 L 163 177 L 76 177 Z M 76 11.914062 " clip-rule="nonzero"/></clipPath><clipPath id="16b1bbb08f"><path d="M 334 188 L 399.988281 188 L 399.988281 388 L 334 388 Z M 334 188 " clip-rule="nonzero"/></clipPath><clipPath id="bf04f380aa"><path d="M 334 378 L 399.988281 378 L 399.988281 437.914062 L 334 437.914062 Z M 334 378 " clip-rule="nonzero"/></clipPath><clipPath id="b43d246fe0"><path d="M 334 167 L 399.988281 167 L 399.988281 197 L 334 197 Z M 334 167 " clip-rule="nonzero"/></clipPath><clipPath id="8b7532bee3"><path d="M 334 127 L 399.988281 127 L 399.988281 176 L 334 176 Z M 334 127 " clip-rule="nonzero"/></clipPath></defs><g clip-path="url(#d224d44101)"><path fill="#000000" d="M 285.160156 437.914062 L 70.578125 437.914062 C 58.933594 437.914062 49.785156 428.761719 49.785156 417.113281 L 49.785156 115.085938 C 49.785156 103.4375 58.933594 94.285156 70.578125 94.285156 L 80.558594 94.285156 C 83.054688 94.285156 84.71875 95.949219 84.71875 98.445312 C 84.71875 100.941406 83.054688 102.605469 80.558594 102.605469 L 70.578125 102.605469 C 63.925781 102.605469 58.101562 108.429688 58.101562 115.085938 L 58.101562 417.113281 C 58.101562 423.769531 63.925781 429.59375 70.578125 429.59375 L 285.160156 429.59375 C 291.8125 429.59375 297.636719 423.769531 297.636719 417.113281 L 297.636719 183.3125 L 216.128906 102.605469 L 157.910156 102.605469 C 155.414062 102.605469 153.75 100.941406 153.75 98.445312 C 153.75 95.949219 155.414062 94.285156 157.910156 94.285156 L 217.792969 94.285156 C 218.625 94.285156 220.289062 95.117188 221.117188 95.117188 L 304.289062 178.320312 C 305.121094 179.152344 305.953125 180.816406 305.953125 181.648438 L 305.953125 417.113281 C 305.953125 428.761719 296.804688 437.914062 285.160156 437.914062 Z M 285.160156 437.914062 " fill-opacity="1" fill-rule="evenodd"/></g><path fill="#000000" d="M 301.792969 185.808594 L 234.425781 185.808594 C 222.78125 185.808594 213.632812 176.65625 213.632812 165.007812 L 213.632812 98.445312 C 213.632812 95.949219 215.296875 94.285156 217.792969 94.285156 C 220.289062 94.285156 221.949219 95.949219 221.949219 98.445312 L 221.949219 165.007812 C 221.949219 171.664062 227.773438 177.488281 234.425781 177.488281 L 301.792969 177.488281 C 304.289062 177.488281 305.953125 179.152344 305.953125 181.648438 C 305.953125 184.144531 304.289062 185.808594 301.792969 185.808594 Z M 301.792969 185.808594 " fill-opacity="1" fill-rule="evenodd"/><path fill="#000000" d="M 209.476562 379.671875 C 206.148438 379.671875 202.820312 379.671875 200.324219 378.839844 C 187.019531 375.511719 175.375 364.695312 169.554688 350.550781 C 158.742188 349.71875 148.761719 345.558594 139.609375 338.902344 C 138.78125 338.902344 138.78125 338.902344 138.78125 338.902344 C 112.164062 337.238281 94.699219 318.101562 96.363281 291.476562 C 97.195312 274.835938 106.34375 258.195312 121.3125 245.714844 C 138.78125 232.402344 163.730469 224.914062 192.839844 225.746094 C 195.335938 225.746094 197 227.410156 197 229.90625 C 197 232.402344 195.335938 234.066406 192.839844 234.066406 C 165.394531 233.234375 142.105469 239.890625 126.304688 252.371094 C 112.996094 263.1875 104.679688 277.332031 104.679688 292.308594 C 103.847656 306.453125 110.5 321.429688 125.472656 327.253906 C 113.828125 316.4375 109.667969 306.453125 112.996094 298.132812 C 117.15625 287.316406 131.292969 284.820312 142.9375 284.820312 C 154.582031 285.652344 167.890625 290.644531 171.214844 301.460938 C 173.710938 311.445312 165.394531 322.261719 147.929688 333.910156 C 153.75 338.070312 160.402344 340.566406 167.058594 342.230469 C 164.5625 325.589844 171.214844 310.613281 185.355469 301.460938 C 185.355469 301.460938 185.355469 301.460938 186.1875 301.460938 C 197.832031 293.972656 241.078125 286.484375 249.398438 299.796875 C 256.050781 309.78125 245.238281 322.261719 217.792969 340.566406 C 206.980469 347.222656 193.671875 351.382812 180.363281 351.382812 C 180.363281 351.382812 179.535156 351.382812 179.535156 351.382812 C 183.691406 361.367188 192.839844 368.855469 201.988281 370.519531 C 216.960938 374.679688 231.929688 366.359375 244.40625 349.71875 C 246.070312 348.054688 248.566406 347.222656 250.230469 348.886719 C 251.890625 350.550781 252.722656 353.046875 251.058594 354.710938 C 235.257812 375.511719 220.289062 379.671875 209.476562 379.671875 Z M 176.207031 343.0625 C 190.34375 343.894531 203.652344 339.734375 212.800781 333.910156 C 246.902344 311.445312 242.742188 304.789062 242.742188 304.789062 C 241.078125 302.292969 233.59375 299.796875 219.457031 300.628906 C 207.8125 302.292969 195.335938 304.789062 190.34375 308.117188 C 178.703125 315.605469 173.710938 328.085938 175.375 341.398438 C 175.375 341.398438 176.207031 342.230469 176.207031 343.0625 Z M 139.609375 293.140625 C 130.460938 293.140625 122.144531 296.46875 120.480469 301.460938 C 119.648438 303.957031 119.648438 313.109375 140.441406 328.917969 C 162.898438 314.773438 163.730469 306.453125 162.898438 303.125 C 161.234375 298.132812 152.917969 293.972656 142.105469 293.140625 C 141.273438 293.140625 140.441406 293.140625 139.609375 293.140625 Z M 139.609375 293.140625 " fill-opacity="1" fill-rule="evenodd"/><g clip-path="url(#0ae05f9459)"><path fill="#000000" d="M 157.910156 176.65625 L 80.558594 176.65625 C 78.066406 176.65625 76.402344 174.992188 76.402344 172.496094 L 76.402344 27.722656 C 76.402344 19.402344 83.886719 11.914062 93.035156 11.914062 L 145.433594 11.914062 C 154.582031 11.914062 162.066406 19.402344 162.066406 27.722656 L 162.066406 172.496094 C 162.066406 174.992188 160.402344 176.65625 157.910156 176.65625 Z M 84.71875 168.335938 L 153.75 168.335938 L 153.75 27.722656 C 153.75 23.5625 150.421875 20.234375 145.433594 20.234375 L 93.035156 20.234375 C 88.875 20.234375 84.71875 23.5625 84.71875 27.722656 Z M 84.71875 168.335938 " fill-opacity="1" fill-rule="evenodd"/></g><path fill="#000000" d="M 157.910156 56.84375 L 132.957031 56.84375 C 130.460938 56.84375 128.800781 55.179688 128.800781 52.683594 C 128.800781 50.1875 130.460938 48.523438 132.957031 48.523438 L 157.910156 48.523438 C 160.402344 48.523438 162.066406 50.1875 162.066406 52.683594 C 162.066406 55.179688 160.402344 56.84375 157.910156 56.84375 Z M 157.910156 56.84375 " fill-opacity="1" fill-rule="evenodd"/><path fill="#000000" d="M 157.910156 82.636719 L 132.957031 82.636719 C 130.460938 82.636719 128.800781 80.972656 128.800781 78.476562 C 128.800781 75.980469 130.460938 74.316406 132.957031 74.316406 L 157.910156 74.316406 C 160.402344 74.316406 162.066406 75.980469 162.066406 78.476562 C 162.066406 80.972656 160.402344 82.636719 157.910156 82.636719 Z M 157.910156 82.636719 " fill-opacity="1" fill-rule="evenodd"/><path fill="#000000" d="M 157.910156 109.261719 L 132.957031 109.261719 C 130.460938 109.261719 128.800781 107.597656 128.800781 105.101562 C 128.800781 102.605469 130.460938 100.941406 132.957031 100.941406 L 157.910156 100.941406 C 160.402344 100.941406 162.066406 102.605469 162.066406 105.101562 C 162.066406 107.597656 160.402344 109.261719 157.910156 109.261719 Z M 157.910156 109.261719 " fill-opacity="1" fill-rule="evenodd"/><path fill="#000000" d="M 157.910156 135.054688 L 132.957031 135.054688 C 130.460938 135.054688 128.800781 133.390625 128.800781 130.894531 C 128.800781 128.398438 130.460938 126.734375 132.957031 126.734375 L 157.910156 126.734375 C 160.402344 126.734375 162.066406 128.398438 162.066406 130.894531 C 162.066406 133.390625 160.402344 135.054688 157.910156 135.054688 Z M 157.910156 135.054688 " fill-opacity="1" fill-rule="evenodd"/><path fill="#000000" d="M 157.910156 160.847656 L 132.957031 160.847656 C 130.460938 160.847656 128.800781 159.183594 128.800781 156.6875 C 128.800781 154.191406 130.460938 152.527344 132.957031 152.527344 L 157.910156 152.527344 C 160.402344 152.527344 162.066406 154.191406 162.066406 156.6875 C 162.066406 159.183594 160.402344 160.847656 157.910156 160.847656 Z M 157.910156 160.847656 " fill-opacity="1" fill-rule="evenodd"/><g clip-path="url(#16b1bbb08f)"><path fill="#000000" d="M 394.945312 387.160156 C 394.113281 387.160156 392.453125 386.328125 391.621094 385.496094 L 380.808594 373.847656 L 369.996094 385.496094 C 369.164062 386.328125 367.5 387.160156 366.667969 387.160156 C 365.835938 387.160156 364.171875 386.328125 363.339844 385.496094 L 352.527344 373.847656 L 341.71875 385.496094 C 340.054688 387.160156 338.390625 387.160156 336.726562 387.160156 C 335.0625 386.328125 334.230469 384.664062 334.230469 383 L 334.230469 192.464844 C 334.230469 189.96875 335.894531 188.304688 338.390625 188.304688 L 394.945312 188.304688 C 397.441406 188.304688 399.105469 189.96875 399.105469 192.464844 L 399.105469 383 C 399.105469 384.664062 398.273438 386.328125 396.609375 387.160156 C 395.777344 387.160156 395.777344 387.160156 394.945312 387.160156 Z M 352.527344 363.863281 C 353.359375 363.863281 355.023438 364.695312 355.855469 365.527344 L 366.667969 377.175781 L 377.480469 365.527344 C 378.3125 364.695312 379.976562 363.863281 380.808594 363.863281 C 381.640625 363.863281 383.300781 364.695312 384.132812 365.527344 L 390.789062 372.183594 L 390.789062 196.625 L 342.546875 196.625 L 342.546875 372.183594 L 349.203125 364.695312 C 350.035156 364.695312 351.699219 363.863281 352.527344 363.863281 Z M 352.527344 363.863281 " fill-opacity="1" fill-rule="evenodd"/></g><g clip-path="url(#bf04f380aa)"><path fill="#000000" d="M 366.667969 437.914062 C 365.003906 437.914062 363.339844 437.082031 363.339844 435.417969 L 335.0625 384.664062 C 333.398438 383 334.230469 380.503906 335.894531 379.671875 C 338.390625 378.007812 340.886719 378.839844 341.71875 380.503906 L 366.667969 425.433594 L 390.789062 380.503906 C 392.453125 378.839844 394.945312 378.007812 396.609375 379.671875 C 399.105469 380.503906 399.9375 383 398.273438 384.664062 L 369.996094 435.417969 C 369.164062 437.082031 368.332031 437.914062 366.667969 437.914062 Z M 366.667969 437.914062 " fill-opacity="1" fill-rule="evenodd"/></g><g clip-path="url(#b43d246fe0)"><path fill="#000000" d="M 394.945312 196.625 C 392.453125 196.625 390.789062 194.960938 390.789062 192.464844 L 390.789062 175.824219 L 342.546875 175.824219 L 342.546875 192.464844 C 342.546875 194.960938 340.886719 196.625 338.390625 196.625 C 335.894531 196.625 334.230469 194.960938 334.230469 192.464844 L 334.230469 171.664062 C 334.230469 169.167969 335.894531 167.503906 338.390625 167.503906 L 394.945312 167.503906 C 397.441406 167.503906 399.105469 169.167969 399.105469 171.664062 L 399.105469 192.464844 C 399.105469 194.960938 397.441406 196.625 394.945312 196.625 Z M 394.945312 196.625 " fill-opacity="1" fill-rule="evenodd"/></g><g clip-path="url(#8b7532bee3)"><path fill="#000000" d="M 394.945312 175.824219 C 392.453125 175.824219 390.789062 174.160156 390.789062 171.664062 L 390.789062 160.015625 C 390.789062 146.703125 379.976562 135.886719 366.667969 135.886719 C 353.359375 135.886719 342.546875 146.703125 342.546875 160.015625 L 342.546875 171.664062 C 342.546875 174.160156 340.886719 175.824219 338.390625 175.824219 C 335.894531 175.824219 334.230469 174.160156 334.230469 171.664062 L 334.230469 160.015625 C 334.230469 141.710938 348.371094 127.566406 366.667969 127.566406 C 384.964844 127.566406 399.105469 141.710938 399.105469 160.015625 L 399.105469 171.664062 C 399.105469 174.160156 397.441406 175.824219 394.945312 175.824219 Z M 394.945312 175.824219 " fill-opacity="1" fill-rule="evenodd"/></g><path fill="#000000" d="M 352.527344 372.183594 C 350.035156 372.183594 348.371094 370.519531 348.371094 368.023438 L 348.371094 192.464844 C 348.371094 189.96875 350.035156 188.304688 352.527344 188.304688 C 355.023438 188.304688 356.6875 189.96875 356.6875 192.464844 L 356.6875 368.023438 C 356.6875 370.519531 355.023438 372.183594 352.527344 372.183594 Z M 352.527344 372.183594 " fill-opacity="1" fill-rule="evenodd"/><path fill="#000000" d="M 380.808594 372.183594 C 378.3125 372.183594 376.648438 370.519531 376.648438 368.023438 L 376.648438 303.957031 C 376.648438 301.460938 378.3125 299.796875 380.808594 299.796875 C 383.300781 299.796875 384.964844 301.460938 384.964844 303.957031 L 384.964844 368.023438 C 384.964844 370.519531 383.300781 372.183594 380.808594 372.183594 Z M 380.808594 298.132812 C 378.3125 298.132812 376.648438 296.46875 376.648438 293.972656 L 376.648438 278.164062 C 376.648438 275.667969 378.3125 274.003906 380.808594 274.003906 C 383.300781 274.003906 384.964844 275.667969 384.964844 278.164062 L 384.964844 293.972656 C 384.964844 296.46875 383.300781 298.132812 380.808594 298.132812 Z M 380.808594 263.1875 C 378.3125 263.1875 376.648438 261.523438 376.648438 259.027344 L 376.648438 192.464844 C 376.648438 189.96875 378.3125 188.304688 380.808594 188.304688 C 383.300781 188.304688 384.964844 189.96875 384.964844 192.464844 L 384.964844 259.027344 C 384.964844 261.523438 383.300781 263.1875 380.808594 263.1875 Z M 380.808594 263.1875 " fill-opacity="1" fill-rule="evenodd"/><path fill="#000000" d="M 354.191406 414.617188 C 352.527344 414.617188 350.867188 412.953125 350.035156 411.289062 C 350.035156 408.792969 350.867188 407.128906 353.359375 406.296875 L 382.472656 400.472656 C 384.964844 400.472656 386.628906 401.304688 387.460938 403.800781 C 387.460938 406.296875 386.628906 407.960938 384.132812 408.792969 L 355.023438 414.617188 C 355.023438 414.617188 354.191406 414.617188 354.191406 414.617188 Z M 354.191406 414.617188 " fill-opacity="1" fill-rule="evenodd"/></svg>