<svg xmlns="http://www.w3.org/2000/svg" xmlns:xlink="http://www.w3.org/1999/xlink" width="200" zoomAndPan="magnify" viewBox="0 0 150 149.999998" height="200" preserveAspectRatio="xMidYMid meet" version="1.0"><defs><clipPath id="7523c52900"><path d="M 31 34 L 138.933594 34 L 138.933594 127.554688 L 31 127.554688 Z M 31 34 " clip-rule="nonzero"/></clipPath><clipPath id="2ccaf9a4a8"><path d="M 11.433594 53 L 49 53 L 49 55 L 11.433594 55 Z M 11.433594 53 " clip-rule="nonzero"/></clipPath><clipPath id="41bc73936a"><path d="M 82 22.554688 L 102 22.554688 L 102 46 L 82 46 Z M 82 22.554688 " clip-rule="nonzero"/></clipPath></defs><g clip-path="url(#7523c52900)"><path fill="#231f20" d="M 127.664062 78.253906 L 138.484375 91.496094 L 138.933594 91.140625 L 128.410156 78.253906 L 138.039062 78.253906 L 138.039062 77.691406 L 127.960938 77.691406 L 111 56.980469 L 110.550781 57.335938 L 127.1875 77.691406 L 110.285156 77.691406 L 110.285156 76.171875 L 109.746094 76.171875 L 109.746094 77.691406 L 95.738281 77.691406 L 95.738281 54.539062 L 108.167969 54.449219 L 109.300781 55.847656 L 109.71875 55.523438 L 109.71875 55.878906 L 110.253906 55.878906 L 110.253906 54.421875 L 122.894531 54.332031 L 122.894531 53.855469 L 110.253906 53.945312 L 110.253906 34.15625 L 109.71875 34.15625 L 109.71875 53.972656 L 108.523438 53.972656 L 108.496094 53.914062 L 108.4375 53.972656 L 87.0625 54.125 L 87.179688 35.167969 L 86.4375 35.167969 L 86.316406 54.125 L 64.285156 54.273438 L 64.285156 54.746094 L 66.96875 54.71875 L 66.96875 71.054688 L 51.765625 70.964844 L 51.765625 72.632812 L 51.378906 72.632812 L 51.378906 74.65625 L 51.765625 74.65625 L 51.765625 76.558594 L 51.378906 76.558594 L 51.378906 77.511719 L 49.46875 77.511719 L 49.46875 78.078125 L 51.378906 78.078125 L 51.378906 115.867188 L 31.703125 115.867188 L 31.703125 116.371094 L 51.40625 116.371094 L 51.40625 127.53125 L 51.914062 127.53125 L 51.914062 116.371094 L 86.285156 116.371094 L 86.285156 121.550781 L 87.03125 121.550781 L 87.03125 116.371094 L 90.726562 116.371094 L 90.726562 115.867188 L 87.03125 115.867188 L 87.03125 105.09375 L 95.738281 105.09375 L 95.738281 79.296875 C 105.933594 84.59375 100.179688 81.589844 109.746094 86.585938 L 109.746094 115.867188 L 106.257812 115.867188 L 106.257812 116.371094 L 109.746094 116.371094 L 109.746094 123.1875 L 110.285156 123.1875 L 110.285156 116.371094 L 122.894531 116.371094 L 122.894531 115.867188 L 110.285156 115.867188 L 110.285156 86.882812 C 110.34375 86.914062 110.402344 86.945312 110.433594 86.972656 L 110.3125 115.777344 L 111.328125 115.777344 L 111.445312 86.378906 C 111.03125 86.171875 110.640625 85.960938 110.253906 85.753906 L 110.253906 78.253906 Z M 109.746094 54.449219 L 109.746094 55.460938 L 108.941406 54.480469 Z M 75.285156 115.003906 L 67.984375 115.003906 L 67.984375 78.195312 L 75.226562 78.226562 Z M 52.78125 78.105469 L 66.96875 78.195312 L 66.96875 115.898438 L 52.691406 115.898438 Z M 68.011719 77.628906 L 68.011719 72.097656 L 75.257812 72.125 L 75.257812 77.660156 Z M 66.96875 72.097656 L 66.96875 77.628906 L 52.78125 77.542969 L 52.808594 72.007812 Z M 86.285156 115.898438 L 76.300781 115.898438 L 76.269531 78.253906 L 78.296875 78.253906 L 78.296875 77.691406 L 76.269531 77.691406 L 76.269531 71.144531 L 68.011719 71.085938 L 68.011719 55.582031 L 86.347656 55.253906 L 86.285156 62.664062 L 87.03125 62.664062 L 87.089844 55.253906 L 94.78125 55.105469 L 94.78125 77.660156 L 93.859375 77.660156 L 93.859375 78.226562 L 94.542969 78.226562 L 87.0625 82.601562 L 87.0625 78.226562 L 88.015625 78.226562 L 88.015625 77.660156 L 86.914062 77.660156 L 86.914062 77.898438 L 86.285156 77.898438 L 86.285156 83.046875 L 80.175781 86.617188 L 79.996094 105.066406 L 86.285156 105.066406 Z M 86.285156 84.234375 L 86.285156 104.082031 L 81.011719 104.082031 L 81.1875 87.242188 Z M 94.722656 104.082031 L 87.03125 104.082031 L 87.03125 83.789062 L 94.753906 79.265625 Z M 109.746094 85.457031 C 103.695312 82.300781 101.878906 81.351562 95.914062 78.226562 L 109.746094 78.226562 Z M 109.746094 85.457031 " fill-opacity="1" fill-rule="nonzero"/></g><path fill="#231f20" d="M 89.894531 77.691406 L 91.921875 77.691406 L 91.921875 78.253906 L 89.894531 78.253906 Z M 89.894531 77.691406 " fill-opacity="1" fill-rule="nonzero"/><path fill="#231f20" d="M 80.207031 77.691406 L 81.785156 77.691406 L 81.785156 78.253906 L 80.207031 78.253906 Z M 80.207031 77.691406 " fill-opacity="1" fill-rule="nonzero"/><path fill="#231f20" d="M 83.691406 77.691406 L 84.976562 77.691406 L 84.976562 78.253906 L 83.691406 78.253906 Z M 83.691406 77.691406 " fill-opacity="1" fill-rule="nonzero"/><path fill="#231f20" d="M 73.585938 94.144531 L 73.585938 94.589844 C 74.300781 94.054688 74.0625 94.503906 73.824219 93.460938 L 73.140625 94.144531 Z M 73.585938 94.144531 " fill-opacity="1" fill-rule="nonzero"/><path fill="#231f20" d="M 54.210938 54.273438 L 55.492188 54.273438 L 55.492188 54.746094 L 54.210938 54.746094 Z M 54.210938 54.273438 " fill-opacity="1" fill-rule="nonzero"/><path fill="#231f20" d="M 57.398438 54.273438 L 58.503906 54.273438 L 58.503906 54.746094 L 57.398438 54.746094 Z M 57.398438 54.273438 " fill-opacity="1" fill-rule="nonzero"/><g clip-path="url(#2ccaf9a4a8)"><path fill="#231f20" d="M 48.816406 54.273438 L 11.433594 53.945312 L 11.433594 54.421875 L 48.816406 54.746094 Z M 48.816406 54.273438 " fill-opacity="1" fill-rule="nonzero"/></g><path fill="#231f20" d="M 60.382812 54.273438 L 62.410156 54.273438 L 62.410156 54.746094 L 60.382812 54.746094 Z M 60.382812 54.273438 " fill-opacity="1" fill-rule="nonzero"/><path fill="#231f20" d="M 109.746094 58.378906 L 110.285156 58.378906 L 110.285156 60.460938 L 109.746094 60.460938 Z M 109.746094 58.378906 " fill-opacity="1" fill-rule="nonzero"/><path fill="#231f20" d="M 109.746094 71.023438 L 110.285156 71.023438 L 110.285156 73.671875 L 109.746094 73.671875 Z M 109.746094 71.023438 " fill-opacity="1" fill-rule="nonzero"/><path fill="#231f20" d="M 109.746094 67.125 L 110.285156 67.125 L 110.285156 68.554688 L 109.746094 68.554688 Z M 109.746094 67.125 " fill-opacity="1" fill-rule="nonzero"/><path fill="#231f20" d="M 109.746094 62.929688 L 110.285156 62.929688 L 110.285156 64.628906 L 109.746094 64.628906 Z M 109.746094 62.929688 " fill-opacity="1" fill-rule="nonzero"/><path fill="#231f20" d="M 51.40625 62.992188 L 51.914062 62.992188 L 51.914062 64.566406 L 51.40625 64.566406 Z M 51.40625 62.992188 " fill-opacity="1" fill-rule="nonzero"/><path fill="#231f20" d="M 51.40625 69.683594 L 51.914062 69.683594 L 51.914062 70.785156 L 51.40625 70.785156 Z M 51.40625 69.683594 " fill-opacity="1" fill-rule="nonzero"/><path fill="#231f20" d="M 51.40625 61.085938 L 51.886719 61.085938 L 51.886719 54.746094 L 52.300781 54.746094 L 52.300781 54.273438 L 51.886719 54.273438 L 51.886719 36.121094 L 51.40625 36.121094 L 51.40625 54.273438 L 50.722656 54.273438 L 50.722656 54.746094 L 51.40625 54.746094 Z M 51.40625 61.085938 " fill-opacity="1" fill-rule="nonzero"/><path fill="#231f20" d="M 51.40625 66.472656 L 51.914062 66.472656 L 51.914062 67.75 L 51.40625 67.75 Z M 51.40625 66.472656 " fill-opacity="1" fill-rule="nonzero"/><path fill="#231f20" d="M 86.285156 64.328125 L 87.03125 64.328125 L 87.03125 66.175781 L 86.285156 66.175781 Z M 86.285156 64.328125 " fill-opacity="1" fill-rule="nonzero"/><path fill="#231f20" d="M 86.285156 67.8125 L 87.03125 67.8125 L 87.03125 69.359375 L 86.285156 69.359375 Z M 86.285156 67.8125 " fill-opacity="1" fill-rule="nonzero"/><path fill="#231f20" d="M 86.285156 74 L 87.03125 74 L 87.03125 76.261719 L 86.285156 76.261719 Z M 86.285156 74 " fill-opacity="1" fill-rule="nonzero"/><path fill="#231f20" d="M 86.285156 70.996094 L 87.03125 70.996094 L 87.03125 72.332031 L 86.285156 72.332031 Z M 86.285156 70.996094 " fill-opacity="1" fill-rule="nonzero"/><path fill="#231f20" d="M 92.636719 115.898438 L 94.664062 115.898438 L 94.664062 116.402344 L 92.636719 116.402344 Z M 92.636719 115.898438 " fill-opacity="1" fill-rule="nonzero"/><path fill="#231f20" d="M 96.570312 115.898438 L 97.675781 115.898438 L 97.675781 116.402344 L 96.570312 116.402344 Z M 96.570312 115.898438 " fill-opacity="1" fill-rule="nonzero"/><path fill="#231f20" d="M 99.582031 115.898438 L 100.863281 115.898438 L 100.863281 116.402344 L 99.582031 116.402344 Z M 99.582031 115.898438 " fill-opacity="1" fill-rule="nonzero"/><path fill="#231f20" d="M 102.773438 115.898438 L 104.351562 115.898438 L 104.351562 116.402344 L 102.773438 116.402344 Z M 102.773438 115.898438 " fill-opacity="1" fill-rule="nonzero"/><path fill="#231f20" d="M 104.167969 49.507812 L 104.605469 49.152344 L 105.414062 50.140625 L 104.976562 50.5 Z M 104.167969 49.507812 " fill-opacity="1" fill-rule="nonzero"/><path fill="#231f20" d="M 106.175781 51.953125 L 106.613281 51.59375 L 107.3125 52.449219 L 106.875 52.804688 Z M 106.175781 51.953125 " fill-opacity="1" fill-rule="nonzero"/><g clip-path="url(#41bc73936a)"><path fill="#231f20" d="M 101.191406 44.957031 L 83.097656 22.582031 L 82.679688 22.9375 L 100.746094 45.316406 Z M 101.191406 44.957031 " fill-opacity="1" fill-rule="nonzero"/></g><path fill="#231f20" d="M 101.953125 46.8125 L 102.394531 46.453125 L 103.390625 47.675781 L 102.953125 48.03125 Z M 101.953125 46.8125 " fill-opacity="1" fill-rule="nonzero"/></svg>