<svg xmlns="http://www.w3.org/2000/svg" xmlns:xlink="http://www.w3.org/1999/xlink" width="600" zoomAndPan="magnify" viewBox="0 0 450 449.999984" height="600" preserveAspectRatio="xMidYMid meet" version="1.0"><defs><g/></defs><g fill="#000000" fill-opacity="1"><g transform="translate(51.642933, 257.24998)"><g><path d="M 4.128906 0 L 22.3125 0 C 40.5 0 49.789062 -8.898438 49.789062 -27.730469 L 49.789062 -92.222656 L 31.085938 -92.222656 L 31.085938 -27.730469 C 31.085938 -22.574219 27.085938 -18.445312 21.796875 -18.445312 L 4.128906 -18.445312 Z M 4.128906 0 "/></g></g></g><g fill="#000000" fill-opacity="1"><g transform="translate(147.733014, 257.24998)"><g><path d="M 52.625 -53.140625 L 16.253906 -93.644531 L 10.320312 -93.644531 L 10.320312 0 L 29.023438 0 L 29.023438 -51.464844 L 52.625 -26.699219 L 76.230469 -51.464844 L 76.101562 0 L 94.804688 0 L 94.804688 -93.644531 L 89 -93.644531 Z M 52.625 -53.140625 "/></g></g></g><g fill="#000000" fill-opacity="1"><g transform="translate(289.093858, 257.24998)"><g><path d="M 54.691406 1.289062 C 118.148438 1.289062 118.148438 -93.773438 54.691406 -93.773438 C -8.769531 -93.773438 -8.769531 1.289062 54.691406 1.289062 Z M 54.691406 -17.800781 C 17.800781 -17.800781 17.800781 -74.8125 54.691406 -74.8125 C 91.578125 -74.8125 91.578125 -17.800781 54.691406 -17.800781 Z M 54.691406 -17.800781 "/></g></g></g><g fill="#000000" fill-opacity="1"><g transform="translate(37.816953, 295.951619)"><g><path d="M 6.84375 -9.25 L 11.433594 -20.828125 L 15.984375 -9.25 Z M 22.457031 0 L 11.433594 -26.898438 L 0.371094 0 L 3.183594 0 L 5.882812 -6.84375 L 16.945312 -6.84375 L 19.644531 0 Z M 22.457031 0 "/></g></g></g><g fill="#000000" fill-opacity="1"><g transform="translate(74.703424, 295.951619)"><g><path d="M 5.363281 -12.429688 L 5.363281 -22.679688 L 11.210938 -22.679688 C 12.726562 -22.679688 13.949219 -22.199219 14.871094 -21.238281 C 15.761719 -20.273438 16.242188 -19.089844 16.242188 -17.609375 C 16.242188 -16.132812 15.761719 -14.910156 14.800781 -13.910156 C 13.835938 -12.914062 12.652344 -12.429688 11.210938 -12.429688 Z M 18.832031 -17.574219 C 18.832031 -19.71875 18.019531 -21.570312 16.464844 -23.011719 C 14.945312 -24.417969 13.058594 -25.160156 10.839844 -25.160156 L 2.773438 -25.160156 L 2.773438 0 L 5.363281 0 L 5.363281 -9.953125 L 8.363281 -9.953125 L 15.761719 0 L 19.238281 0 L 11.46875 -9.953125 C 13.429688 -10.0625 15.09375 -10.765625 16.464844 -12.0625 C 18.019531 -13.503906 18.832031 -15.355469 18.832031 -17.574219 Z M 18.832031 -17.574219 "/></g></g></g><g fill="#000000" fill-opacity="1"><g transform="translate(108.889193, 295.951619)"><g><path d="M 27.527344 -12.542969 C 27.527344 -14.316406 27.15625 -15.984375 26.488281 -17.574219 C 25.824219 -19.128906 24.898438 -20.496094 23.714844 -21.679688 C 22.53125 -22.863281 21.164062 -23.789062 19.609375 -24.457031 C 18.019531 -25.121094 16.351562 -25.492188 14.578125 -25.492188 C 12.800781 -25.492188 11.097656 -25.121094 9.546875 -24.457031 C 7.992188 -23.789062 6.621094 -22.863281 5.4375 -21.679688 C 4.253906 -20.496094 3.328125 -19.128906 2.664062 -17.574219 C 1.996094 -15.984375 1.664062 -14.316406 1.664062 -12.542969 C 1.664062 -10.765625 1.996094 -9.0625 2.664062 -7.511719 C 3.328125 -5.957031 4.253906 -4.585938 5.4375 -3.402344 C 6.621094 -2.21875 7.992188 -1.292969 9.546875 -0.628906 C 11.097656 0.0351562 12.800781 0.371094 14.578125 0.371094 C 15.613281 0.371094 16.648438 0.257812 17.648438 0 L 27.894531 0 L 27.894531 -2.109375 L 24.121094 -2.109375 C 23.199219 -1.886719 22.234375 -1.664062 21.199219 -1.441406 C 22.125 -1.996094 22.976562 -2.664062 23.714844 -3.402344 C 24.898438 -4.585938 25.824219 -5.957031 26.488281 -7.511719 C 27.15625 -9.0625 27.527344 -10.765625 27.527344 -12.542969 Z M 24.9375 -12.542969 C 24.9375 -9.691406 23.898438 -7.25 21.902344 -5.253906 C 19.867188 -3.21875 17.425781 -2.21875 14.578125 -2.21875 C 11.726562 -2.21875 9.285156 -3.21875 7.289062 -5.253906 C 5.253906 -7.25 4.253906 -9.691406 4.253906 -12.542969 C 4.253906 -15.390625 5.253906 -17.832031 7.289062 -19.867188 C 9.285156 -21.867188 11.726562 -22.902344 14.578125 -22.902344 C 17.425781 -22.902344 19.867188 -21.867188 21.902344 -19.867188 C 23.898438 -17.832031 24.9375 -15.390625 24.9375 -12.542969 Z M 24.9375 -12.542969 "/></g></g></g><g fill="#000000" fill-opacity="1"><g transform="translate(151.954011, 295.951619)"><g><path d="M 20.976562 -8.324219 L 20.976562 -25.160156 L 18.386719 -25.160156 L 18.386719 -7.953125 C 18.386719 -6.917969 18.203125 -6.066406 17.832031 -5.363281 C 16.761719 -3.292969 14.6875 -2.257812 11.617188 -2.257812 C 9.621094 -2.257812 8.027344 -2.699219 6.84375 -3.589844 C 5.476562 -4.585938 4.808594 -6.03125 4.808594 -7.953125 L 4.808594 -25.160156 L 2.21875 -25.160156 L 2.21875 -8.324219 C 2.21875 -5.585938 3.109375 -3.441406 4.882812 -1.886719 C 6.546875 -0.40625 8.804688 0.332031 11.617188 0.332031 C 14.390625 0.332031 16.613281 -0.40625 18.3125 -1.886719 C 20.089844 -3.441406 20.976562 -5.585938 20.976562 -8.324219 Z M 20.976562 -8.324219 "/></g></g></g><g fill="#000000" fill-opacity="1"><g transform="translate(189.210443, 295.951619)"><g><path d="M 5.363281 0 L 5.363281 -25.160156 L 2.773438 -25.160156 L 2.773438 0 Z M 5.363281 0 "/></g></g></g><g fill="#000000" fill-opacity="1"><g transform="translate(211.409473, 295.951619)"><g><path d="M 0.738281 -22.828125 L 6.84375 -22.828125 L 6.84375 -0.0742188 L 9.433594 -0.0742188 L 9.433594 -22.828125 L 15.539062 -22.828125 L 15.539062 -25.230469 L 0.738281 -25.230469 Z M 0.738281 -22.828125 "/></g></g></g><g fill="#000000" fill-opacity="1"><g transform="translate(241.747655, 295.951619)"><g><path d="M 17.722656 0 L 17.722656 -2.40625 L 5.363281 -2.40625 L 5.363281 -11.359375 L 17.351562 -11.359375 L 17.351562 -13.800781 L 5.363281 -13.800781 L 5.363281 -22.753906 L 17.722656 -22.753906 L 17.722656 -25.160156 L 2.773438 -25.160156 L 2.773438 0 Z M 17.722656 0 "/></g></g></g><g fill="#000000" fill-opacity="1"><g transform="translate(276.303385, 295.951619)"><g><path d="M 25.859375 -7.695312 L 23.011719 -7.695312 C 22.125 -6.066406 20.902344 -4.734375 19.351562 -3.773438 C 17.796875 -2.773438 16.058594 -2.292969 14.207031 -2.292969 C 11.433594 -2.292969 9.0625 -3.292969 7.105469 -5.363281 C 5.179688 -7.324219 4.253906 -9.730469 4.253906 -12.542969 C 4.253906 -15.355469 5.179688 -17.757812 7.105469 -19.757812 C 7.992188 -20.679688 9.0625 -21.421875 10.285156 -21.976562 C 11.46875 -22.53125 12.652344 -22.828125 13.835938 -22.828125 C 14.984375 -22.828125 15.984375 -22.679688 16.871094 -22.421875 C 19.570312 -21.605469 21.605469 -19.980469 22.976562 -17.5 L 25.824219 -17.5 C 24.863281 -19.867188 23.34375 -21.792969 21.238281 -23.269531 C 19.089844 -24.75 16.761719 -25.492188 14.207031 -25.492188 C 10.691406 -25.492188 7.734375 -24.195312 5.289062 -21.644531 C 4.144531 -20.460938 3.253906 -19.054688 2.625 -17.5 C 1.960938 -15.945312 1.664062 -14.28125 1.664062 -12.542969 C 1.664062 -8.992188 2.847656 -5.992188 5.289062 -3.476562 C 7.734375 -0.886719 10.691406 0.371094 14.207031 0.371094 C 16.761719 0.371094 19.089844 -0.371094 21.273438 -1.851562 C 23.382812 -3.328125 24.898438 -5.253906 25.859375 -7.695312 Z M 25.859375 -7.695312 "/></g></g></g><g fill="#000000" fill-opacity="1"><g transform="translate(317.333426, 295.951619)"><g><path d="M 0.738281 -22.828125 L 6.84375 -22.828125 L 6.84375 -0.0742188 L 9.433594 -0.0742188 L 9.433594 -22.828125 L 15.539062 -22.828125 L 15.539062 -25.230469 L 0.738281 -25.230469 Z M 0.738281 -22.828125 "/></g></g></g><g fill="#000000" fill-opacity="1"><g transform="translate(347.671596, 295.951619)"><g><path d="M 24.9375 -12.652344 C 24.9375 -9.765625 23.898438 -7.324219 21.902344 -5.328125 C 19.867188 -3.292969 17.425781 -2.292969 14.578125 -2.292969 C 11.726562 -2.292969 9.285156 -3.292969 7.289062 -5.328125 C 5.253906 -7.324219 4.253906 -9.765625 4.253906 -12.652344 C 4.253906 -15.464844 5.253906 -17.90625 7.289062 -19.941406 C 9.285156 -21.941406 11.726562 -22.976562 14.578125 -22.976562 C 17.425781 -22.976562 19.867188 -21.941406 21.902344 -19.941406 C 23.898438 -17.90625 24.9375 -15.464844 24.9375 -12.652344 Z M 27.527344 -12.652344 C 27.527344 -14.429688 27.15625 -16.09375 26.488281 -17.683594 C 25.824219 -19.238281 24.898438 -20.609375 23.714844 -21.792969 C 22.53125 -22.9375 21.164062 -23.863281 19.609375 -24.53125 C 18.019531 -25.195312 16.351562 -25.566406 14.578125 -25.566406 C 12.800781 -25.566406 11.097656 -25.195312 9.546875 -24.53125 C 7.992188 -23.863281 6.621094 -22.9375 5.4375 -21.792969 C 4.253906 -20.609375 3.328125 -19.238281 2.664062 -17.683594 C 1.996094 -16.09375 1.664062 -14.429688 1.664062 -12.652344 C 1.664062 -10.878906 1.996094 -9.175781 2.664062 -7.621094 C 3.328125 -6.03125 4.253906 -4.660156 5.4375 -3.476562 C 6.621094 -2.292969 7.992188 -1.367188 9.546875 -0.703125 C 11.097656 -0.0351562 12.800781 0.296875 14.578125 0.296875 C 16.351562 0.296875 18.019531 -0.0351562 19.609375 -0.703125 C 21.164062 -1.367188 22.53125 -2.292969 23.714844 -3.476562 C 24.898438 -4.660156 25.824219 -6.03125 26.488281 -7.621094 C 27.15625 -9.175781 27.527344 -10.878906 27.527344 -12.652344 Z M 27.527344 -12.652344 "/></g></g></g><g fill="#000000" fill-opacity="1"><g transform="translate(390.921402, 295.951619)"><g><path d="M 9.730469 -11.839844 C 12.984375 -11.0625 15.207031 -10.210938 16.390625 -9.25 C 17.203125 -8.582031 17.609375 -7.734375 17.609375 -6.695312 C 17.609375 -5.660156 17.390625 -4.808594 16.945312 -4.21875 C 15.835938 -2.664062 13.835938 -1.886719 11.023438 -1.886719 C 7.105469 -1.886719 4.882812 -3.21875 4.402344 -5.882812 L 1.367188 -5.882812 C 2.257812 -1.628906 5.476562 0.480469 11.023438 0.480469 C 13.503906 0.480469 15.574219 -0.0351562 17.242188 -1.148438 C 19.238281 -2.441406 20.273438 -4.367188 20.273438 -6.882812 C 20.273438 -8.953125 19.460938 -10.542969 17.832031 -11.652344 C 16.6875 -12.46875 14.835938 -13.207031 12.28125 -13.875 C 9.691406 -14.539062 8.027344 -15.09375 7.25 -15.5 C 5.550781 -16.351562 4.699219 -17.535156 4.734375 -19.089844 C 4.734375 -19.90625 4.882812 -20.609375 5.253906 -21.125 C 6.214844 -22.570312 7.917969 -23.308594 10.359375 -23.308594 C 13.800781 -23.308594 15.761719 -22.199219 16.277344 -20.050781 L 19.089844 -20.050781 C 18.164062 -23.679688 15.242188 -25.527344 10.359375 -25.527344 C 8.140625 -25.527344 6.179688 -24.9375 4.550781 -23.753906 C 2.886719 -22.570312 2.035156 -20.828125 2.035156 -18.460938 C 2.035156 -15.242188 4.625 -13.023438 9.730469 -11.839844 Z M 9.730469 -11.839844 "/></g></g></g></svg>