<svg xmlns="http://www.w3.org/2000/svg" xmlns:xlink="http://www.w3.org/1999/xlink" width="600" zoomAndPan="magnify" viewBox="0 0 450 449.999984" height="600" preserveAspectRatio="xMidYMid meet" version="1.0"><defs><g/></defs><g fill="#000000" fill-opacity="1"><g transform="translate(24.125155, 263.254249)"><g><path d="M 5.007812 0 L 27.066406 0 C 49.121094 0 60.386719 -10.792969 60.386719 -33.636719 L 60.386719 -111.855469 L 37.703125 -111.855469 L 37.703125 -33.636719 C 37.703125 -27.378906 32.851562 -22.371094 26.4375 -22.371094 L 5.007812 -22.371094 Z M 5.007812 0 "/></g></g></g><g fill="#000000" fill-opacity="1"><g transform="translate(131.284601, 263.254249)"><g><path d="M 63.828125 -64.453125 L 19.710938 -113.578125 L 12.515625 -113.578125 L 12.515625 0 L 35.199219 0 L 35.199219 -62.421875 L 63.828125 -32.382812 L 92.457031 -62.421875 L 92.300781 0 L 114.984375 0 L 114.984375 -113.578125 L 107.945312 -113.578125 Z M 63.828125 -64.453125 "/></g></g></g><g fill="#000000" fill-opacity="1"><g transform="translate(293.352246, 263.254249)"><g><path d="M 66.332031 1.5625 C 143.300781 1.5625 143.300781 -113.734375 66.332031 -113.734375 C -10.636719 -113.734375 -10.636719 1.5625 66.332031 1.5625 Z M 66.332031 -21.589844 C 21.589844 -21.589844 21.589844 -90.738281 66.332031 -90.738281 C 111.074219 -90.738281 111.074219 -21.589844 66.332031 -21.589844 Z M 66.332031 -21.589844 "/></g></g></g></svg>