<svg xmlns="http://www.w3.org/2000/svg" xmlns:xlink="http://www.w3.org/1999/xlink" width="1600" zoomAndPan="magnify" viewBox="0 0 1200 809.999993" height="1080" preserveAspectRatio="xMidYMid meet" version="1.0"><defs><g/><clipPath id="b02f802676"><path d="M 316.515625 452.164062 L 883.851562 452.164062 L 883.851562 550.035156 L 316.515625 550.035156 Z M 316.515625 452.164062 " clip-rule="nonzero"/></clipPath><clipPath id="b7149dac8a"><path d="M 883.484375 501.101562 L 818.234375 452.164062 L 818.234375 484.789062 L 316.515625 484.789062 L 316.515625 517.410156 L 818.234375 517.410156 L 818.234375 550.035156 Z M 883.484375 501.101562 " clip-rule="nonzero"/></clipPath></defs><rect x="-120" width="1440" fill="#ffffff" y="-80.999999" height="971.999992" fill-opacity="1"/><rect x="-120" width="1440" fill="#000000" y="-80.999999" height="971.999992" fill-opacity="1"/><g clip-path="url(#b02f802676)"><g clip-path="url(#b7149dac8a)"><path fill="#ffffff" d="M 316.515625 452.164062 L 883.46875 452.164062 L 883.46875 550.035156 L 316.515625 550.035156 Z M 316.515625 452.164062 " fill-opacity="1" fill-rule="nonzero"/></g></g><g fill="#ffffff" fill-opacity="1"><g transform="translate(358.252809, 322.315374)"><g><path d="M 21.679688 -52.90625 L 5.917969 -52.90625 L 5.917969 0 L 21.679688 0 C 56.902344 0 56.902344 -52.90625 21.679688 -52.90625 Z M 21.679688 -42.324219 C 42.25 -42.324219 42.25 -10.582031 21.679688 -10.582031 L 16.5 -10.582031 L 16.5 -42.324219 Z M 21.679688 -42.324219 "/></g></g></g><g fill="#ffffff" fill-opacity="1"><g transform="translate(410.343268, 322.315374)"><g><path d="M 33.296875 0 L 33.296875 -10.582031 L 16.5 -10.582031 L 16.5 -21.164062 L 30.410156 -21.164062 L 30.410156 -31.742188 L 16.5 -31.742188 L 16.5 -42.324219 L 32.410156 -42.324219 L 32.410156 -52.90625 L 5.917969 -52.90625 L 5.917969 0 Z M 33.296875 0 "/></g></g></g><g fill="#ffffff" fill-opacity="1"><g transform="translate(447.635304, 322.315374)"><g><path d="M 3.476562 -3.402344 C 10.65625 0.296875 17.242188 0.664062 20.199219 0.445312 C 30.117188 -0.0742188 36.183594 -6.808594 36.183594 -15.613281 C 36.183594 -24.046875 29.078125 -28.785156 20.867188 -31.816406 C 17.832031 -32.855469 15.242188 -34.1875 14.945312 -37.144531 C 14.726562 -40.105469 16.425781 -42.84375 20.199219 -43.066406 C 21.828125 -43.140625 25.160156 -43.214844 31.003906 -40.84375 L 32.335938 -51.054688 C 25.527344 -53.425781 21.902344 -53.425781 19.164062 -53.277344 C 10.359375 -52.832031 4.21875 -46.023438 4.21875 -37.144531 C 4.21875 -28.265625 11.617188 -24.046875 19.90625 -21.015625 C 22.863281 -19.980469 25.160156 -18.648438 25.378906 -15.613281 C 25.675781 -12.726562 23.011719 -10.507812 19.90625 -10.285156 C 17.460938 -10.0625 10.878906 -10.210938 4.808594 -14.503906 Z M 3.476562 -3.402344 "/></g></g></g><g fill="#ffffff" fill-opacity="1"><g transform="translate(486.77714, 322.315374)"><g><path d="M 39.585938 -40.625 L 40.84375 -51.5 C 37.664062 -52.90625 34.113281 -53.574219 30.410156 -53.574219 C -5.402344 -53.574219 -5.476562 0.148438 30.410156 0.148438 C 34.113281 0.148438 38.773438 -0.738281 42.027344 -2.070312 L 40.625 -13.023438 C 38.625 -11.988281 35 -10.65625 30.410156 -10.65625 C 9.472656 -10.65625 9.472656 -42.917969 30.410156 -42.917969 C 35 -42.917969 37.589844 -41.660156 39.585938 -40.625 Z M 39.585938 -40.625 "/></g></g></g><g fill="#ffffff" fill-opacity="1"><g transform="translate(531.320404, 322.315374)"><g><path d="M 43.878906 -18.425781 L 43.878906 -52.90625 L 33.371094 -52.90625 L 33.371094 -18.5 C 33.371094 -7.398438 16.203125 -7.398438 16.203125 -18.5 L 16.203125 -52.90625 L 5.625 -52.90625 L 5.625 -18.425781 C 5.625 6.734375 43.878906 6.734375 43.878906 -18.425781 Z M 43.878906 -18.425781 "/></g></g></g><g fill="#ffffff" fill-opacity="1"><g transform="translate(580.969106, 322.315374)"><g><path d="M 5.917969 0 L 26.859375 0 C 35.445312 0 42.472656 -7.03125 42.472656 -15.910156 C 42.472656 -20.050781 40.476562 -24.121094 36.996094 -26.488281 C 40.328125 -28.785156 41.734375 -32.929688 41.882812 -36.921875 C 42.101562 -46.246094 36.257812 -52.980469 26.859375 -52.980469 L 5.917969 -52.980469 Z M 16.574219 -42.398438 L 25.972656 -42.398438 C 29.007812 -42.398438 30.855469 -40.03125 30.855469 -37.070312 C 30.855469 -34.1875 29.007812 -31.742188 25.972656 -31.742188 L 16.574219 -31.742188 Z M 16.574219 -21.164062 L 25.972656 -21.164062 C 29.007812 -21.164062 31.300781 -18.867188 31.300781 -15.910156 C 31.300781 -12.949219 29.007812 -10.582031 25.972656 -10.582031 L 16.574219 -10.582031 Z M 16.574219 -21.164062 "/></g></g></g><g fill="#ffffff" fill-opacity="1"><g transform="translate(626.918231, 322.315374)"><g><path d="M 32.261719 0 L 44.25 0 L 31.964844 -21.828125 C 47.503906 -26.34375 45.65625 -52.90625 26.785156 -52.90625 L 5.917969 -52.90625 L 5.917969 0 L 16.5 0 L 16.5 -20.199219 L 21.605469 -20.199219 Z M 16.5 -30.484375 L 16.5 -42.324219 L 25.824219 -42.324219 C 33 -42.324219 33 -30.484375 25.824219 -30.484375 Z M 16.5 -30.484375 "/></g></g></g><g fill="#ffffff" fill-opacity="1"><g transform="translate(672.275421, 322.315374)"><g><path d="M 33.296875 0 L 33.296875 -10.582031 L 16.5 -10.582031 L 16.5 -21.164062 L 30.410156 -21.164062 L 30.410156 -31.742188 L 16.5 -31.742188 L 16.5 -42.324219 L 32.410156 -42.324219 L 32.410156 -52.90625 L 5.917969 -52.90625 L 5.917969 0 Z M 33.296875 0 "/></g></g></g><g fill="#ffffff" fill-opacity="1"><g transform="translate(709.567457, 322.315374)"><g/></g></g><g fill="#ffffff" fill-opacity="1"><g transform="translate(730.581235, 322.315374)"><g><path d="M 25.230469 0 L 25.230469 -42.324219 L 38.402344 -42.324219 L 38.402344 -52.832031 L 1.480469 -52.832031 L 1.480469 -42.324219 L 14.652344 -42.324219 L 14.652344 0 Z M 25.230469 0 "/></g></g></g><g fill="#ffffff" fill-opacity="1"><g transform="translate(771.054912, 322.315374)"><g><path d="M 43.878906 -18.425781 L 43.878906 -52.90625 L 33.371094 -52.90625 L 33.371094 -18.5 C 33.371094 -7.398438 16.203125 -7.398438 16.203125 -18.5 L 16.203125 -52.90625 L 5.625 -52.90625 L 5.625 -18.425781 C 5.625 6.734375 43.878906 6.734375 43.878906 -18.425781 Z M 43.878906 -18.425781 "/></g></g></g><g fill="#ffffff" fill-opacity="1"><g transform="translate(820.70982, 322.315374)"><g/></g></g><g fill="#ffffff" fill-opacity="1"><g transform="translate(382.088745, 425.815369)"><g><path d="M 16.5 -28.785156 L 43.285156 1.109375 L 46.097656 1.109375 L 46.097656 -52.832031 L 35.445312 -52.832031 L 35.445312 -22.9375 L 8.730469 -54.015625 L 5.917969 -54.015625 L 5.917969 0 L 16.5 0 Z M 16.5 -28.785156 "/></g></g></g><g fill="#ffffff" fill-opacity="1"><g transform="translate(434.179204, 425.815369)"><g><path d="M 43.878906 -18.425781 L 43.878906 -52.90625 L 33.371094 -52.90625 L 33.371094 -18.5 C 33.371094 -7.398438 16.203125 -7.398438 16.203125 -18.5 L 16.203125 -52.90625 L 5.625 -52.90625 L 5.625 -18.425781 C 5.625 6.734375 43.878906 6.734375 43.878906 -18.425781 Z M 43.878906 -18.425781 "/></g></g></g><g fill="#ffffff" fill-opacity="1"><g transform="translate(483.827918, 425.815369)"><g><path d="M 33.296875 0 L 33.296875 -10.582031 L 16.5 -10.582031 L 16.5 -21.164062 L 30.410156 -21.164062 L 30.410156 -31.742188 L 16.5 -31.742188 L 16.5 -42.324219 L 32.410156 -42.324219 L 32.410156 -52.90625 L 5.917969 -52.90625 L 5.917969 0 Z M 33.296875 0 "/></g></g></g><g fill="#ffffff" fill-opacity="1"><g transform="translate(521.119954, 425.815369)"><g><path d="M 22.347656 1.109375 L 24.714844 1.109375 L 46.617188 -52.90625 L 34.40625 -52.90625 L 27.304688 -34.925781 L 23.53125 -24.34375 L 19.683594 -35.296875 L 12.652344 -52.90625 L 0.445312 -52.90625 Z M 22.347656 1.109375 "/></g></g></g><g fill="#ffffff" fill-opacity="1"><g transform="translate(568.252935, 425.815369)"><g><path d="M 1.183594 0 L 13.171875 0 L 15.242188 -5.699219 L 32.78125 -5.699219 L 34.925781 0 L 46.839844 0 L 24.566406 -54.832031 L 23.457031 -54.832031 Z M 19.089844 -15.613281 L 24.046875 -29.375 L 28.859375 -15.613281 Z M 19.089844 -15.613281 "/></g></g></g><g fill="#ffffff" fill-opacity="1"><g transform="translate(616.569797, 425.815369)"><g/></g></g><g fill="#ffffff" fill-opacity="1"><g transform="translate(637.583575, 425.815369)"><g><path d="M 39.585938 -40.625 L 40.84375 -51.5 C 37.664062 -52.90625 34.113281 -53.574219 30.410156 -53.574219 C -5.402344 -53.574219 -5.476562 0.148438 30.410156 0.148438 C 34.113281 0.148438 38.773438 -0.738281 42.027344 -2.070312 L 40.625 -13.023438 C 38.625 -11.988281 35 -10.65625 30.410156 -10.65625 C 9.472656 -10.65625 9.472656 -42.917969 30.410156 -42.917969 C 35 -42.917969 37.589844 -41.660156 39.585938 -40.625 Z M 39.585938 -40.625 "/></g></g></g><g fill="#ffffff" fill-opacity="1"><g transform="translate(682.126839, 425.815369)"><g><path d="M 1.183594 0 L 13.171875 0 L 15.242188 -5.699219 L 32.78125 -5.699219 L 34.925781 0 L 46.839844 0 L 24.566406 -54.832031 L 23.457031 -54.832031 Z M 19.089844 -15.613281 L 24.046875 -29.375 L 28.859375 -15.613281 Z M 19.089844 -15.613281 "/></g></g></g><g fill="#ffffff" fill-opacity="1"><g transform="translate(730.4437, 425.815369)"><g><path d="M 3.476562 -3.402344 C 10.65625 0.296875 17.242188 0.664062 20.199219 0.445312 C 30.117188 -0.0742188 36.183594 -6.808594 36.183594 -15.613281 C 36.183594 -24.046875 29.078125 -28.785156 20.867188 -31.816406 C 17.832031 -32.855469 15.242188 -34.1875 14.945312 -37.144531 C 14.726562 -40.105469 16.425781 -42.84375 20.199219 -43.066406 C 21.828125 -43.140625 25.160156 -43.214844 31.003906 -40.84375 L 32.335938 -51.054688 C 25.527344 -53.425781 21.902344 -53.425781 19.164062 -53.277344 C 10.359375 -52.832031 4.21875 -46.023438 4.21875 -37.144531 C 4.21875 -28.265625 11.617188 -24.046875 19.90625 -21.015625 C 22.863281 -19.980469 25.160156 -18.648438 25.378906 -15.613281 C 25.675781 -12.726562 23.011719 -10.507812 19.90625 -10.285156 C 17.460938 -10.0625 10.878906 -10.210938 4.808594 -14.503906 Z M 3.476562 -3.402344 "/></g></g></g><g fill="#ffffff" fill-opacity="1"><g transform="translate(769.585536, 425.815369)"><g><path d="M 1.183594 0 L 13.171875 0 L 15.242188 -5.699219 L 32.78125 -5.699219 L 34.925781 0 L 46.839844 0 L 24.566406 -54.832031 L 23.457031 -54.832031 Z M 19.089844 -15.613281 L 24.046875 -29.375 L 28.859375 -15.613281 Z M 19.089844 -15.613281 "/></g></g></g></svg>