<svg xmlns="http://www.w3.org/2000/svg" xmlns:xlink="http://www.w3.org/1999/xlink" width="600" zoomAndPan="magnify" viewBox="0 0 450 449.999984" height="600" preserveAspectRatio="xMidYMid meet" version="1.0"><defs><clipPath id="6e0a95d15a"><path d="M 94 389 L 356 389 L 356 431.132812 L 94 431.132812 Z M 94 389 " clip-rule="nonzero"/></clipPath><clipPath id="e7949eba9e"><path d="M 18.632812 18.632812 L 431.132812 18.632812 L 431.132812 404 L 18.632812 404 Z M 18.632812 18.632812 " clip-rule="nonzero"/></clipPath></defs><g clip-path="url(#6e0a95d15a)"><path fill="#000000" d="M 135.507812 406.292969 L 135.507812 414.726562 L 122.859375 410.507812 Z M 149.257812 403.632812 L 314.257812 403.632812 L 314.257812 417.382812 L 149.257812 417.382812 Z M 328.007812 403.632812 L 334.882812 403.632812 C 338.671875 403.632812 341.757812 406.722656 341.757812 410.507812 C 341.757812 414.296875 338.671875 417.382812 334.882812 417.382812 L 328.007812 417.382812 Z M 140.207031 430.785156 C 140.90625 431.027344 141.660156 431.132812 142.382812 431.132812 L 334.882812 431.132812 C 346.269531 431.132812 355.507812 421.894531 355.507812 410.507812 C 355.507812 399.121094 346.269531 389.882812 334.882812 389.882812 L 142.382812 389.882812 C 142.304688 389.882812 140.851562 390.019531 140.207031 390.234375 L 98.957031 403.984375 C 96.164062 404.921875 94.257812 407.554688 94.257812 410.507812 C 94.257812 413.464844 96.164062 416.09375 98.957031 417.035156 L 140.207031 430.785156 " fill-opacity="1" fill-rule="nonzero"/></g><g clip-path="url(#e7949eba9e)"><path fill="#000000" d="M 396.757812 73.632812 C 385.371094 73.632812 376.132812 64.394531 376.132812 53.007812 L 362.382812 53.007812 L 362.382812 362.382812 L 32.382812 362.382812 L 32.382812 32.382812 L 396.757812 32.382812 C 408.144531 32.382812 417.382812 41.621094 417.382812 53.007812 C 417.382812 64.394531 408.144531 73.632812 396.757812 73.632812 Z M 417.382812 369.257812 C 417.382812 380.644531 408.144531 389.882812 396.757812 389.882812 C 385.371094 389.882812 376.132812 380.644531 376.132812 369.257812 L 376.132812 80.480469 C 381.882812 84.804688 389.023438 87.382812 396.757812 87.382812 C 404.519531 87.382812 411.609375 84.699219 417.382812 80.320312 Z M 396.757812 18.632812 L 18.632812 18.632812 L 18.632812 376.132812 L 363.082031 376.132812 C 366.277344 391.816406 380.164062 403.632812 396.757812 403.632812 C 415.71875 403.632812 431.132812 388.21875 431.132812 369.257812 L 431.132812 53.007812 C 431.132812 34.050781 415.71875 18.632812 396.757812 18.632812 " fill-opacity="1" fill-rule="nonzero"/></g><path fill="#000000" d="M 252.382812 197.382812 L 238.632812 197.382812 L 238.632812 183.632812 L 252.382812 183.632812 Z M 224.882812 197.382812 L 211.132812 197.382812 L 211.132812 142.382812 L 279.882812 142.382812 L 279.882812 197.382812 L 266.132812 197.382812 L 266.132812 169.882812 L 224.882812 169.882812 Z M 211.132812 114.882812 L 307.382812 114.882812 L 307.382812 197.382812 L 293.632812 197.382812 L 293.632812 128.632812 L 211.132812 128.632812 Z M 197.382812 197.382812 L 183.632812 197.382812 L 183.632812 156.132812 L 142.382812 156.132812 L 142.382812 197.382812 L 128.632812 197.382812 L 128.632812 128.632812 L 142.382812 128.632812 L 142.382812 142.382812 L 156.132812 142.382812 L 156.132812 128.632812 L 169.882812 128.632812 L 169.882812 142.382812 L 183.632812 142.382812 L 183.632812 128.632812 L 197.382812 128.632812 Z M 169.882812 197.382812 L 156.132812 197.382812 L 156.132812 169.882812 L 169.882812 169.882812 Z M 114.882812 197.382812 L 87.382812 197.382812 L 87.382812 183.632812 L 101.132812 183.632812 L 101.132812 169.882812 L 114.882812 169.882812 Z M 321.132812 211.132812 L 321.132812 101.132812 L 197.382812 101.132812 L 197.382812 114.882812 L 114.882812 114.882812 L 114.882812 156.132812 L 87.382812 156.132812 L 87.382812 169.882812 L 73.632812 169.882812 L 73.632812 211.132812 L 321.132812 211.132812 " fill-opacity="1" fill-rule="nonzero"/><path fill="#000000" d="M 114.882812 252.382812 L 46.132812 252.382812 L 46.132812 266.132812 L 114.882812 266.132812 L 114.882812 252.382812 " fill-opacity="1" fill-rule="nonzero"/><path fill="#000000" d="M 87.382812 279.882812 L 46.132812 279.882812 L 46.132812 293.632812 L 87.382812 293.632812 L 87.382812 279.882812 " fill-opacity="1" fill-rule="nonzero"/><path fill="#000000" d="M 128.632812 266.132812 L 224.882812 266.132812 L 224.882812 252.382812 L 128.632812 252.382812 L 128.632812 266.132812 " fill-opacity="1" fill-rule="nonzero"/><path fill="#000000" d="M 101.132812 293.632812 L 224.882812 293.632812 L 224.882812 279.882812 L 101.132812 279.882812 L 101.132812 293.632812 " fill-opacity="1" fill-rule="nonzero"/><path fill="#000000" d="M 114.882812 307.382812 L 46.132812 307.382812 L 46.132812 321.132812 L 114.882812 321.132812 L 114.882812 307.382812 " fill-opacity="1" fill-rule="nonzero"/><path fill="#000000" d="M 46.132812 348.632812 L 87.382812 348.632812 L 87.382812 334.882812 L 46.132812 334.882812 L 46.132812 348.632812 " fill-opacity="1" fill-rule="nonzero"/><path fill="#000000" d="M 307.382812 252.382812 L 238.632812 252.382812 L 238.632812 266.132812 L 307.382812 266.132812 L 307.382812 252.382812 " fill-opacity="1" fill-rule="nonzero"/><path fill="#000000" d="M 238.632812 293.632812 L 279.882812 293.632812 L 279.882812 279.882812 L 238.632812 279.882812 L 238.632812 293.632812 " fill-opacity="1" fill-rule="nonzero"/><path fill="#000000" d="M 238.632812 321.132812 L 307.382812 321.132812 L 307.382812 307.382812 L 238.632812 307.382812 L 238.632812 321.132812 " fill-opacity="1" fill-rule="nonzero"/><path fill="#000000" d="M 238.632812 348.632812 L 279.882812 348.632812 L 279.882812 334.882812 L 238.632812 334.882812 L 238.632812 348.632812 " fill-opacity="1" fill-rule="nonzero"/><path fill="#000000" d="M 128.632812 321.132812 L 224.882812 321.132812 L 224.882812 307.382812 L 128.632812 307.382812 L 128.632812 321.132812 " fill-opacity="1" fill-rule="nonzero"/><path fill="#000000" d="M 101.132812 348.632812 L 224.882812 348.632812 L 224.882812 334.882812 L 101.132812 334.882812 L 101.132812 348.632812 " fill-opacity="1" fill-rule="nonzero"/><path fill="#000000" d="M 321.132812 266.132812 L 348.632812 266.132812 L 348.632812 252.382812 L 321.132812 252.382812 L 321.132812 266.132812 " fill-opacity="1" fill-rule="nonzero"/><path fill="#000000" d="M 293.632812 293.632812 L 348.632812 293.632812 L 348.632812 279.882812 L 293.632812 279.882812 L 293.632812 293.632812 " fill-opacity="1" fill-rule="nonzero"/><path fill="#000000" d="M 321.132812 321.132812 L 348.632812 321.132812 L 348.632812 307.382812 L 321.132812 307.382812 L 321.132812 321.132812 " fill-opacity="1" fill-rule="nonzero"/><path fill="#000000" d="M 293.632812 348.632812 L 348.632812 348.632812 L 348.632812 334.882812 L 293.632812 334.882812 L 293.632812 348.632812 " fill-opacity="1" fill-rule="nonzero"/><path fill="#000000" d="M 59.882812 59.882812 L 80.507812 59.882812 L 80.507812 46.132812 L 46.132812 46.132812 L 46.132812 87.382812 L 59.882812 87.382812 L 59.882812 59.882812 " fill-opacity="1" fill-rule="nonzero"/><path fill="#000000" d="M 59.882812 101.132812 L 46.132812 101.132812 L 46.132812 114.882812 L 59.882812 114.882812 L 59.882812 101.132812 " fill-opacity="1" fill-rule="nonzero"/><path fill="#000000" d="M 321.132812 59.882812 L 334.882812 59.882812 L 334.882812 73.632812 L 348.632812 73.632812 L 348.632812 46.132812 L 321.132812 46.132812 L 321.132812 59.882812 " fill-opacity="1" fill-rule="nonzero"/></svg>