<svg xmlns="http://www.w3.org/2000/svg" xmlns:xlink="http://www.w3.org/1999/xlink" width="600" zoomAndPan="magnify" viewBox="0 0 450 449.999984" height="600" preserveAspectRatio="xMidYMid meet" version="1.0"><defs><clipPath id="17008f5a9c"><path d="M 69.207031 22.011719 L 380.457031 22.011719 L 380.457031 427.761719 L 69.207031 427.761719 Z M 69.207031 22.011719 " clip-rule="nonzero"/></clipPath></defs><g clip-path="url(#17008f5a9c)"><path fill="#100f0d" d="M 366.773438 414.234375 L 109.925781 414.234375 L 109.925781 400.710938 L 305.941406 400.710938 C 307.816406 400.710938 309.503906 399.945312 310.71875 398.730469 L 351.273438 358.15625 C 352.488281 356.941406 353.253906 355.25 353.253906 353.375 L 353.253906 55.824219 L 366.773438 55.824219 Z M 330.175781 360.136719 L 312.699219 377.625 L 312.699219 360.136719 Z M 82.890625 35.535156 L 339.734375 35.535156 L 339.734375 346.609375 L 305.941406 346.609375 C 302.21875 346.609375 299.179688 349.648438 299.179688 353.375 L 299.179688 387.1875 L 82.890625 387.1875 Z M 373.53125 42.296875 L 353.253906 42.296875 L 353.253906 28.773438 C 353.253906 25.046875 350.21875 22.011719 346.496094 22.011719 L 76.132812 22.011719 C 72.410156 22.011719 69.371094 25.046875 69.371094 28.773438 L 69.371094 393.949219 C 69.371094 397.671875 72.410156 400.710938 76.132812 400.710938 L 96.410156 400.710938 L 96.410156 421 C 96.410156 424.722656 99.445312 427.761719 103.167969 427.761719 L 373.53125 427.761719 C 377.253906 427.761719 380.289062 424.722656 380.289062 421 L 380.289062 49.0625 C 380.289062 45.335938 377.253906 42.296875 373.53125 42.296875 " fill-opacity="1" fill-rule="nonzero"/></g><path fill="#100f0d" d="M 116.683594 69.347656 L 305.941406 69.347656 L 305.941406 109.921875 L 116.683594 109.921875 Z M 109.925781 123.449219 L 312.699219 123.449219 C 316.421875 123.449219 319.457031 120.410156 319.457031 116.6875 L 319.457031 62.585938 C 319.457031 58.859375 316.421875 55.824219 312.699219 55.824219 L 109.925781 55.824219 C 106.203125 55.824219 103.167969 58.859375 103.167969 62.585938 L 103.167969 116.6875 C 103.167969 120.410156 106.203125 123.449219 109.925781 123.449219 " fill-opacity="1" fill-rule="nonzero"/><path fill="#100f0d" d="M 180.316406 346.609375 L 166.796875 333.085938 L 177.515625 322.359375 L 191.035156 335.886719 L 191.035156 346.609375 Z M 116.683594 342.648438 L 136.960938 322.359375 L 161.199219 346.609375 L 116.683594 346.609375 Z M 191.035156 272.222656 L 191.035156 316.761719 L 182.296875 308.015625 C 179.65625 305.375 175.378906 305.375 172.738281 308.015625 L 157.238281 323.523438 L 141.742188 308.015625 C 139.101562 305.375 134.824219 305.375 132.183594 308.015625 L 116.683594 323.523438 L 116.683594 272.222656 Z M 197.792969 258.699219 L 109.925781 258.699219 C 106.203125 258.699219 103.167969 261.734375 103.167969 265.460938 L 103.167969 353.375 C 103.167969 357.097656 106.203125 360.136719 109.925781 360.136719 L 197.792969 360.136719 C 201.515625 360.136719 204.554688 357.097656 204.554688 353.375 L 204.554688 265.460938 C 204.554688 261.734375 201.515625 258.699219 197.792969 258.699219 " fill-opacity="1" fill-rule="nonzero"/><path fill="#100f0d" d="M 305.941406 285.75 L 238.347656 285.75 L 238.347656 272.222656 L 305.941406 272.222656 Z M 312.699219 258.699219 L 231.589844 258.699219 C 227.867188 258.699219 224.832031 261.734375 224.832031 265.460938 L 224.832031 292.511719 C 224.832031 296.234375 227.867188 299.273438 231.589844 299.273438 L 312.699219 299.273438 C 316.421875 299.273438 319.457031 296.234375 319.457031 292.511719 L 319.457031 265.460938 C 319.457031 261.734375 316.421875 258.699219 312.699219 258.699219 " fill-opacity="1" fill-rule="nonzero"/><path fill="#100f0d" d="M 103.167969 157.261719 L 204.554688 157.261719 L 204.554688 143.734375 L 103.167969 143.734375 L 103.167969 157.261719 " fill-opacity="1" fill-rule="nonzero"/><path fill="#100f0d" d="M 103.167969 184.3125 L 204.554688 184.3125 L 204.554688 170.785156 L 103.167969 170.785156 L 103.167969 184.3125 " fill-opacity="1" fill-rule="nonzero"/><path fill="#100f0d" d="M 103.167969 211.359375 L 204.554688 211.359375 L 204.554688 197.835938 L 103.167969 197.835938 L 103.167969 211.359375 " fill-opacity="1" fill-rule="nonzero"/><path fill="#100f0d" d="M 103.167969 238.410156 L 204.554688 238.410156 L 204.554688 224.886719 L 103.167969 224.886719 L 103.167969 238.410156 " fill-opacity="1" fill-rule="nonzero"/><path fill="#100f0d" d="M 224.832031 360.136719 L 278.902344 360.136719 L 278.902344 346.609375 L 224.832031 346.609375 L 224.832031 360.136719 " fill-opacity="1" fill-rule="nonzero"/><path fill="#100f0d" d="M 224.832031 333.085938 L 319.457031 333.085938 L 319.457031 319.5625 L 224.832031 319.5625 L 224.832031 333.085938 " fill-opacity="1" fill-rule="nonzero"/><path fill="#100f0d" d="M 278.902344 224.886719 L 278.902344 214.160156 L 297.199219 195.855469 L 287.644531 186.292969 L 272.144531 201.796875 L 256.644531 186.292969 L 247.089844 195.855469 L 265.386719 214.160156 L 265.386719 224.886719 L 251.867188 224.886719 L 251.867188 221.265625 C 251.867188 219.339844 251.046875 217.488281 249.621094 216.222656 C 242.441406 209.800781 238.347656 200.609375 238.347656 191.074219 C 238.347656 172.421875 253.503906 157.261719 272.144531 157.261719 C 290.785156 157.261719 305.941406 172.421875 305.941406 191.074219 C 305.941406 200.609375 301.847656 209.800781 294.664062 216.222656 C 293.238281 217.488281 292.421875 219.339844 292.421875 221.265625 L 292.421875 224.886719 Z M 319.457031 191.074219 C 319.457031 164.972656 298.230469 143.734375 272.144531 143.734375 C 246.058594 143.734375 224.832031 164.972656 224.832031 191.074219 C 224.832031 203.4375 229.714844 215.324219 238.347656 224.144531 L 238.347656 224.886719 L 224.832031 224.886719 L 224.832031 238.410156 L 319.457031 238.410156 L 319.457031 224.886719 L 305.941406 224.886719 L 305.941406 224.144531 C 314.574219 215.324219 319.457031 203.4375 319.457031 191.074219 " fill-opacity="1" fill-rule="nonzero"/><path fill="#100f0d" d="M 164 285.75 L 150.480469 285.75 L 150.480469 299.273438 L 164 299.273438 L 164 285.75 " fill-opacity="1" fill-rule="nonzero"/></svg>